<?xml version="1.0" encoding="UTF-8"?>
<svg width="14px" height="14px" viewBox="0 0 14 14" version="1.1" xmlns="http://www.w3.org/2000/svg" xmlns:xlink="http://www.w3.org/1999/xlink">
    <title>图谱-full</title>
    <defs>
        <linearGradient x1="5.55111512e-15%" y1="-9.43689571e-14%" x2="100%" y2="100%" id="linearGradient-1">
            <stop stop-color="#6D63FF" offset="0%"></stop>
            <stop stop-color="#3D37D7" offset="100%"></stop>
        </linearGradient>
    </defs>
    <g id="聚焦搜索" stroke="none" stroke-width="1" fill="none" fill-rule="evenodd">
        <g id="聚焦搜索-详情" transform="translate(-239.000000, -696.000000)">
            <g id="连接线详情" transform="translate(223.000000, 580.000000)">
                <g id="条目3-图谱" transform="translate(0.000000, 109.000000)">
                    <g id="图谱-full" transform="translate(16.000000, 7.000000)">
                        <rect id="图标" fill="url(#linearGradient-1)" x="0" y="0" width="14" height="14" rx="2"></rect>
                        <path d="M9.42076154,5.01848615 C9.36216912,5.07707857 9.3592395,5.17082644 9.41392576,5.23234848 C9.75766795,5.61905845 9.96762412,6.12783596 9.96762412,6.68641702 C9.96762412,7.39440876 9.63169425,8.02330073 9.11022171,8.42368226 C9.04772313,8.47153274 9.03014541,8.55844482 9.07018356,8.62582611 L9.44615159,9.27815505 C9.47837743,9.33381785 9.53989947,9.36311406 9.60337458,9.3543252 C9.661967,9.34651288 9.72153596,9.34260672 9.78208146,9.34260672 C10.4666362,9.34748942 11.0320531,9.9256013 11.0232642,10.6091795 C11.0144754,11.2888516 10.4627301,11.8376672 9.78208146,11.8425815 C9.08971437,11.8474326 8.52332098,11.2849454 8.52332098,10.5925783 C8.52332098,10.2205165 8.68640321,9.88653968 8.94420986,9.6570527 L8.49500131,8.8797266 C8.45984586,8.8191811 8.38953496,8.78890835 8.32215368,8.80648608 C8.14930604,8.85043039 7.96766954,8.87386736 7.78115034,8.87386736 C6.72258063,8.87386736 5.83978817,8.12193131 5.63764432,7.12293055 C5.62299622,7.05066656 5.55854456,6.99890993 5.48432749,6.99890994 L4.58591039,6.99890994 C4.51852911,6.99890994 4.45896015,7.04285425 4.43747626,7.10730591 C4.27341749,7.60631801 3.80370158,7.96568485 3.25000322,7.96568485 C2.55665959,7.96568485 1.99514891,7.40124455 2,6.70692438 C2.00393777,6.01748691 2.57228423,5.45890584 3.2617217,5.46574162 C3.79100656,5.47062432 4.24216819,5.80557765 4.41892199,6.27431701 C4.44138242,6.33486251 4.49997484,6.37392412 4.5644265,6.37392412 L5.48335095,6.37392412 C5.55756801,6.37392412 5.62104314,6.32216748 5.63666778,6.2499035 C5.83881163,5.25090275 6.72160408,4.4989667 7.78017379,4.4989667 C8.11024442,4.4989667 8.42371387,4.57220722 8.70495748,4.70404017 C8.76452644,4.73235984 8.83581389,4.72064136 8.88268782,4.67376742 L9.58970301,3.96675222 C9.63657695,3.91987828 9.65024851,3.84859084 9.62095231,3.78902188 C9.54282908,3.62593964 9.49888476,3.44235006 9.49888477,3.24997161 C9.49888477,2.5595576 10.0584424,2 10.7488564,2 C11.4382939,2 11.998828,2.56053415 11.998828,3.24997161 C11.998828,3.94038563 11.4392704,4.49994323 10.7488564,4.49994324 C10.5555014,4.49994324 10.3728884,4.45599892 10.2098061,4.37787569 C10.1502372,4.34955602 10.0789497,4.36225105 10.0320758,4.40912499 L9.42076154,5.01848615 Z" id="路径" fill="#FFFFFF" fill-rule="nonzero"></path>
                    </g>
                </g>
            </g>
        </g>
    </g>
</svg>