<?xml version="1.0" encoding="UTF-8"?>
<svg width="20px" height="20px" viewBox="0 0 20 20" version="1.1" xmlns="http://www.w3.org/2000/svg" xmlns:xlink="http://www.w3.org/1999/xlink">
    <title>图元icon</title>
    <defs>
        <linearGradient x1="100%" y1="100%" x2="5.55111512e-15%" y2="-7.21644966e-14%" id="linearGradient-1">
            <stop stop-color="#FF318D" offset="0%"></stop>
            <stop stop-color="#FC6867" offset="100%"></stop>
        </linearGradient>
    </defs>
    <g id="聚焦搜索" stroke="none" stroke-width="1" fill="none" fill-rule="evenodd">
        <g id="聚焦搜索-详情" transform="translate(-867.000000, -87.000000)">
            <g id="图元详情" transform="translate(223.000000, 70.000000)">
                <g id="图元icon" transform="translate(644.000000, 17.000000)">
                    <rect id="图标" fill="url(#linearGradient-1)" x="0" y="0" width="20" height="20" rx="2"></rect>
                    <g id="图元" transform="translate(2.857143, 4.285714)" fill="#FFFFFF" fill-rule="nonzero">
                        <path d="M12.2979911,4.36607143 L7.68080357,4.36607143 L7.68080357,1.98883929 C7.68080357,1.8046875 7.53013393,1.65401786 7.34598214,1.65401786 C7.16183036,1.65401786 7.01116071,1.8046875 7.01116071,1.98883929 L7.01116071,4.36607143 L2.39564732,4.36607143 C2.11439732,4.36607143 1.88671875,4.60714286 1.88671875,4.90178571 L1.88671875,11.5814732 C1.88671875,11.765625 2.03738839,11.9162946 2.22154018,11.9162946 C2.40569196,11.9162946 2.55636161,11.765625 2.55636161,11.5814732 L2.55636161,5.03571429 L7.01116071,5.03571429 L7.01116071,10.6607143 C7.01116071,10.8448661 7.16183036,10.9955357 7.34598214,10.9955357 C7.53013393,10.9955357 7.68080357,10.8448661 7.68080357,10.6607143 L7.68080357,5.03571429 L12.1372768,5.03571429 L12.1372768,7.49330357 C12.1372768,7.67745536 12.2879464,7.828125 12.4720982,7.828125 C12.65625,7.828125 12.8069196,7.67745536 12.8069196,7.49330357 L12.8069196,4.90178571 C12.8069196,4.60714286 12.5792411,4.36607143 12.2979911,4.36607143 L12.2979911,4.36607143 Z" id="路径"></path>
                        <path d="M5.16796875,2.12276786 L5.16796875,0.200892857 C5.16796875,0.0904017857 5.25837054,0 5.36886161,0 L9.32645089,0 C9.43694196,0 9.52734375,0.0904017857 9.52734375,0.200892857 L9.52734375,2.12276786 C9.52734375,2.23325893 9.43694196,2.32366071 9.32645089,2.32366071 L5.36886161,2.32366071 C5.25837054,2.32366071 5.16796875,2.23325893 5.16796875,2.12276786 Z" id="路径"></path>
                        <path d="M10.2924107,8.30189732 L10.2924107,6.37834821 C10.2924107,6.26785714 10.3828125,6.17745536 10.4933036,6.17745536 L14.4508929,6.17745536 C14.5613839,6.17745536 14.6517857,6.26785714 14.6517857,6.37834821 L14.6517857,8.30189732 C14.6517857,8.41238839 14.5613839,8.50279018 14.4508929,8.50279018 L10.4933036,8.50279018 C10.3828125,8.50279018 10.2924107,8.41238839 10.2924107,8.30189732 Z" id="路径"></path>
                        <path d="M5.16796875,8.30189732 L5.16796875,6.37834821 C5.16796875,6.26785714 5.25837054,6.17745536 5.36886161,6.17745536 L9.32645089,6.17745536 C9.43694196,6.17745536 9.52734375,6.26785714 9.52734375,6.37834821 L9.52734375,8.30189732 C9.52734375,8.41238839 9.43694196,8.50279018 9.32645089,8.50279018 L5.36886161,8.50279018 C5.25837054,8.50279018 5.16796875,8.41238839 5.16796875,8.30189732 Z" id="路径"></path>
                        <path d="M5.16796875,11.9129464 L5.16796875,9.99107143 C5.16796875,9.88058036 5.25837054,9.79017857 5.36886161,9.79017857 L9.32645089,9.79017857 C9.43694196,9.79017857 9.52734375,9.88058036 9.52734375,9.99107143 L9.52734375,11.9146205 C9.52734375,12.0251116 9.43694196,12.1155134 9.32645089,12.1155134 L5.36886161,12.1155134 C5.25837054,12.1138393 5.16796875,12.0234375 5.16796875,11.9129464 Z" id="路径"></path>
                        <path d="M-3.17206578e-16,8.30189732 L-3.17206578e-16,6.37834821 C-3.17206578e-16,6.26785714 0.0904017857,6.17745536 0.200892857,6.17745536 L4.15848214,6.17745536 C4.26897321,6.17745536 4.359375,6.26785714 4.359375,6.37834821 L4.359375,8.30189732 C4.359375,8.41238839 4.26897321,8.50279018 4.15848214,8.50279018 L0.200892857,8.50279018 C0.0904017857,8.50279018 -3.17206578e-16,8.41238839 -3.17206578e-16,8.30189732 Z" id="路径"></path>
                        <path d="M-3.17206578e-16,11.9129464 L-3.17206578e-16,9.99107143 C-3.17206578e-16,9.88058036 0.0904017857,9.79017857 0.200892857,9.79017857 L4.15848214,9.79017857 C4.26897321,9.79017857 4.359375,9.88058036 4.359375,9.99107143 L4.359375,11.9146205 C4.359375,12.0251116 4.26897321,12.1155134 4.15848214,12.1155134 L0.200892857,12.1155134 C0.0904017857,12.1138393 -3.17206578e-16,12.0234375 -3.17206578e-16,11.9129464 Z" id="路径"></path>
                    </g>
                </g>
            </g>
        </g>
    </g>
</svg>