<?xml version="1.0" encoding="UTF-8"?>
<svg width="14px" height="14px" viewBox="0 0 14 14" version="1.1" xmlns="http://www.w3.org/2000/svg" xmlns:xlink="http://www.w3.org/1999/xlink">
    <title>协同icon</title>
    <defs>
        <linearGradient x1="5.55111512e-15%" y1="-1.16573418e-13%" x2="100%" y2="100%" id="linearGradient-1">
            <stop stop-color="#F9A7D5" offset="0%"></stop>
            <stop stop-color="#FF0481" offset="100%"></stop>
        </linearGradient>
    </defs>
    <g id="聚焦搜索" stroke="none" stroke-width="1" fill="none" fill-rule="evenodd">
        <g id="协同icon">
            <rect id="图标" fill="url(#linearGradient-1)" x="0" y="0" width="14" height="14" rx="2"></rect>
            <g id="renyuanzu-shi" transform="translate(2.000000, 4.000000)" fill="#FFFFFF" fill-rule="nonzero">
                <path d="M7.07848573,5.00803187 C7.3306512,5.22452837 6.82855181,4.79153537 7.07848573,5.00803187 L7.07848573,5.00803187 Z" id="路径"></path>
                <path d="M7.07848573,4.97065827 C6.77722609,4.86577529 6.45141937,4.85908063 6.15015973,4.75419764 C6.05866606,4.7229559 5.87791028,4.68501951 5.83997388,4.58013652 C5.80426904,4.47748509 5.80426904,4.35698123 5.79757438,4.24986669 C5.79311127,4.16506768 5.79087972,4.08026868 5.79087972,3.99546967 C5.79087972,3.93968084 5.9336991,3.82140854 5.96494084,3.77008283 C6.0854447,3.56924307 6.09660246,3.29922517 6.11891799,3.07160677 C6.31306309,3.12516404 6.33761017,2.76588403 6.37108347,2.65653794 C6.39563055,2.58066514 6.54514459,2.05848177 6.31306309,2.12989146 C6.36885191,2.03170313 6.39116744,1.91119928 6.40678831,1.80185319 C6.45141937,1.51621442 6.46927179,1.20379702 6.38224123,0.924852906 C6.20148545,0.344649157 5.64582878,0.018842437 5.05893037,0.000990013971 C4.46310576,-0.0190939619 3.86504959,0.266544806 3.6418943,0.844517002 C3.53477976,1.12569266 3.54370597,1.43141541 3.57941082,1.72598039 C3.59503169,1.85987356 3.61734722,2.0093876 3.6842938,2.12989146 C3.46783317,2.06517643 3.58387392,2.52487632 3.608421,2.60521222 C3.64412585,2.71902142 3.67536759,3.1273956 3.8784389,3.07160677 C3.89629133,3.25236256 3.9163753,3.43758145 3.96546946,3.61387412 C3.99894276,3.73214643 4.0681209,3.83256631 4.1484568,3.92405997 C4.18862475,3.96869103 4.20870873,3.97315414 4.20647718,4.03117451 C4.20424562,4.20523564 4.20870873,4.39268608 4.16407767,4.5622841 C4.11944661,4.73188212 3.74677728,4.80329181 3.59726324,4.83453355 C3.19558372,4.917101 2.82514594,4.9550374 2.49041301,5.20497133 C2.09989126,5.49284165 1.89681995,5.94138378 1.89681995,6.42563075 L8.10053695,6.42563075 C8.10053695,5.76732265 7.70332054,5.1871189 7.07848573,4.97065827 L7.07848573,4.97065827 Z" id="路径"></path>
                <path d="M2.48371835,4.80331916 L2.60871267,4.67832485 C2.58527623,4.69394914 2.5618398,4.72519771 2.54621551,4.740822 C2.52277908,4.75644629 2.50715479,4.77207058 2.48371835,4.80331916 Z" id="路径"></path>
                <path d="M2.48371835,4.69617727 C2.40784556,4.73411367 2.31635189,4.78097628 2.50157078,4.68725106 L2.5194232,4.67832485 C2.6711688,4.60691515 2.83407216,4.58906273 2.99697552,4.57344186 C3.059459,4.5667472 3.08846918,4.5243477 3.04160657,4.46409577 C2.95234446,4.35028657 2.64439016,4.32797104 2.51496009,4.27664533 C2.43462419,4.24540359 2.41230866,4.2163934 2.405614,4.12713129 C2.40338245,4.08696333 2.38106692,3.9084391 2.41230866,3.87942892 C2.43462419,3.85711339 2.57521202,3.8660396 2.60645376,3.86157649 C2.73365228,3.84595562 2.86308234,3.81917699 2.9835862,3.77231438 C3.03491191,3.7522304 3.08400608,3.72768332 3.12863714,3.69644158 C3.1821944,3.65627363 3.08846918,3.5580853 3.0639221,3.50452803 C2.9880493,3.33716157 2.95457601,3.15417423 2.94341825,2.97118689 C2.92110272,2.61190688 2.97689154,2.25039532 2.90994495,1.89334685 C2.80952507,1.3466164 2.38776158,1.0721354 1.84995734,1.0721354 C1.51745596,1.0721354 1.18941768,1.18594459 1.0041988,1.47604647 C0.79889593,1.79515853 0.810053695,2.19237494 0.821211459,2.55611806 C0.827906118,2.76365248 0.836832329,2.97341845 0.807822142,3.18095287 C0.794432825,3.27021498 0.774348849,3.35724554 0.743107108,3.44204455 C0.718560027,3.50675959 0.593593065,3.66743139 0.642687229,3.70090469 C0.827906118,3.83256631 1.14032352,3.87719736 1.36347881,3.85934494 C1.37017347,3.96869103 1.39025744,4.10927886 1.35008949,4.2119303 C1.28760601,4.3726021 0.821211459,4.41500161 0.680623628,4.46186422 C0.290101874,4.59129428 0,4.90817479 0,5.35448537 L1.77408454,5.35448537 C1.80309473,5.35448537 1.91467237,5.14695095 1.94591411,5.11347766 C2.09765971,4.94611119 2.28287859,4.80106025 2.48371835,4.69617727 L2.48371835,4.69617727 Z M9.31227016,4.45963266 C9.13151438,4.40161229 8.78339213,4.38375987 8.65396206,4.22755117 C8.58924703,4.14944681 8.62495187,3.95083861 8.63164653,3.85711339 C8.72983486,3.8660396 8.8369494,3.85041873 8.93736928,3.83702941 C9.02886295,3.82364009 9.11812506,3.80578767 9.20515562,3.77454593 C9.24532357,3.75892506 9.28549153,3.74330419 9.32342793,3.72098866 C9.41045849,3.66966295 9.37029054,3.66073673 9.32565948,3.58486394 C9.08242021,3.17648976 9.19176631,2.65876949 9.18060854,2.21022736 C9.17168233,1.83755803 9.073494,1.42918386 8.73429797,1.21941789 C8.42857522,1.02973589 7.97556999,1.02304123 7.64753171,1.1569344 C6.70135329,1.53629839 7.25924151,2.79043111 6.93566635,3.50899114 C6.87987752,3.62949499 6.79954162,3.6718945 6.94012945,3.74330419 C7.0182338,3.78347214 7.10303281,3.81025078 7.18783182,3.83033475 C7.31726189,3.86157649 7.45115506,3.87942892 7.58504823,3.88389202 C7.60736376,3.88389202 7.59174289,4.16506768 7.58504823,4.19407787 C7.56050115,4.30342396 7.32172499,4.3346657 7.23246288,4.35921279 C7.14096921,4.38375987 6.98922361,4.39045453 6.94459256,4.4864113 C6.87764597,4.62923068 7.16551629,4.59352584 7.23692598,4.60691515 C7.46677593,4.64931466 7.66984724,4.77651317 7.84837147,4.92156411 C7.98226465,5.0309102 8.16302043,5.17819269 8.21211459,5.35671692 L10.00182,5.35671692 C9.99735689,4.90817479 9.70502347,4.58906273 9.31227016,4.45963266 L9.31227016,4.45963266 Z" id="形状"></path>
            </g>
        </g>
    </g>
</svg>