<?xml version="1.0" encoding="UTF-8"?>
<svg width="20px" height="20px" viewBox="0 0 20 20" version="1.1" xmlns="http://www.w3.org/2000/svg" xmlns:xlink="http://www.w3.org/1999/xlink">
    <title>视图icon</title>
    <defs>
        <linearGradient x1="5.55111512e-15%" y1="-1.2490009e-13%" x2="100%" y2="100%" id="linearGradient-1">
            <stop stop-color="#C1F0E5" offset="0%"></stop>
            <stop stop-color="#91D2D7" offset="100%"></stop>
        </linearGradient>
    </defs>
    <g id="聚焦搜索" stroke="none" stroke-width="1" fill="none" fill-rule="evenodd">
        <g id="聚焦搜索-详情" transform="translate(-1662.000000, -87.000000)">
            <g id="视图详情" transform="translate(1018.000000, 70.000000)">
                <g id="视图icon" transform="translate(644.000000, 17.000000)">
                    <rect id="图标" fill="url(#linearGradient-1)" x="0" y="0" width="20" height="20" rx="2"></rect>
                    <g id="24gf-fileText" transform="translate(5.000000, 3.571429)" fill="#FFFFFF" fill-rule="nonzero">
                        <path d="M7.5974026,2.77597402 C7.5974026,2.85666497 7.66281554,2.92207792 7.74350649,2.92207792 L10.3447951,2.92207792 C10.3322849,2.90746752 10.3193182,2.89303977 10.3055296,2.87925121 L7.6402293,0.213950893 C7.62644074,0.200162333 7.61201298,0.187195621 7.5974026,0.174685466 L7.5974026,2.77597402 Z" id="路径"></path>
                        <path d="M7.01298701,2.77597402 L7.01298701,0 L0.730519476,0 C0.327252461,0.000452911535 0.000452911535,0.327252461 0,0.730519476 L0,12.1266234 C0.000452911535,12.5298904 0.327252461,12.8566899 0.730519476,12.8571428 L9.78896104,12.8571428 C10.1922281,12.8566899 10.5190276,12.5298904 10.5194805,12.1266234 L10.5194805,3.50649351 L7.74350649,3.50649351 C7.34023947,3.50604059 7.01343992,3.17924104 7.01298701,2.77597402 L7.01298701,2.77597402 Z M2.62987013,2.92207792 L4.96753247,2.92207792 C5.12891438,2.92207792 5.25974027,3.0529038 5.25974027,3.21428571 C5.25974027,3.37566762 5.12891438,3.50649351 4.96753247,3.50649351 L2.62987013,3.50649351 C2.46848822,3.50649351 2.33766234,3.37566762 2.33766234,3.21428571 C2.33766234,3.0529038 2.46848822,2.92207792 2.62987013,2.92207792 L2.62987013,2.92207792 Z M7.88961039,9.93506493 L2.62987013,9.93506493 C2.46848822,9.93506493 2.33766234,9.80423904 2.33766234,9.64285714 C2.33766234,9.48147523 2.46848822,9.35064934 2.62987013,9.35064934 L7.88961039,9.35064934 C8.0509923,9.35064934 8.18181818,9.48147523 8.18181818,9.64285714 C8.18181818,9.80423904 8.0509923,9.93506493 7.88961039,9.93506493 L7.88961039,9.93506493 Z M8.18181818,6.72077921 C8.18181818,6.79827754 8.15103209,6.87260174 8.0962325,6.92740133 C8.04143291,6.98220092 7.96710872,7.01298701 7.88961039,7.01298701 L2.62987013,7.01298701 C2.46848822,7.01298701 2.33766234,6.88216113 2.33766234,6.72077922 C2.33766234,6.55939731 2.46848822,6.42857142 2.62987013,6.42857142 L7.88961039,6.42857142 C7.96710871,6.42857142 8.04143291,6.45935751 8.0962325,6.5141571 C8.15103209,6.56895669 8.18181818,6.64328089 8.18181818,6.72077921 Z" id="形状"></path>
                    </g>
                </g>
            </g>
        </g>
    </g>
</svg>