<?xml version="1.0" encoding="UTF-8"?>
<svg width="14px" height="14px" viewBox="0 0 14 14" version="1.1" xmlns="http://www.w3.org/2000/svg" xmlns:xlink="http://www.w3.org/1999/xlink">
    <title>查找替换icon</title>
    <defs>
        <linearGradient x1="5.55111512e-15%" y1="1.52655666e-13%" x2="100%" y2="100%" id="linearGradient-1">
            <stop stop-color="#9FAAEF" offset="0%"></stop>
            <stop stop-color="#B180CC" offset="100%"></stop>
        </linearGradient>
    </defs>
    <g id="聚焦搜索" stroke="none" stroke-width="1" fill="none" fill-rule="evenodd">
        <g id="聚焦搜索-详情" transform="translate(-239.000000, -841.000000)">
            <g id="连接线详情" transform="translate(223.000000, 580.000000)">
                <g id="相关功能-查找替换" transform="translate(0.000000, 254.000000)">
                    <g id="查找替换icon" transform="translate(16.000000, 7.000000)">
                        <rect id="图标" fill="url(#linearGradient-1)" x="0" y="0" width="14" height="14" rx="2"></rect>
                        <g id="sousuo-3" transform="translate(3.000000, 3.000000)" fill="#FFFFFF" fill-rule="nonzero">
                            <path d="M7.791712,7.75438529 C7.5141544,8.0319429 7.06431965,8.0319429 6.78676205,7.75438529 L5.40184529,6.36946854 C4.85055846,6.7369931 4.18824858,6.95233951 3.47521266,6.95233951 C1.55623679,6.95233951 0,5.39610272 0,3.47616976 C0,1.55623679 1.55623679,1.81348544e-16 3.47616976,1.81348544e-16 C5.39610272,1.81348544e-16 6.95233951,1.55623679 6.95233951,3.47616976 C6.95233951,4.16910668 6.74943533,4.81514594 6.40009559,5.35686182 L7.7926691,6.74943533 C8.06926961,7.02699294 8.06926961,7.47682768 7.791712,7.75438529 Z M3.47521266,1.29016433 C2.26831562,1.29016433 1.28920723,2.26927271 1.28920723,3.47616976 C1.28920723,4.6830668 2.26831562,5.66217519 3.47521266,5.66217519 C4.68210971,5.66217519 5.66121879,4.6830668 5.66121879,3.47616976 C5.66217519,2.26927271 4.6830668,1.29016433 3.47521266,1.29016433 Z M4.60554209,4.92138351 C4.59214276,4.9414825 4.57204376,4.95583893 4.54620219,4.9615815 C4.49356195,4.97402374 4.43996462,4.94052541 4.42847948,4.88788517 C4.41699434,4.83811622 4.4447501,4.78930437 4.49260486,4.77303375 C5.05729102,4.32798448 5.26593778,3.56326542 5.00560788,2.89617007 C4.99890822,2.88277073 4.99603693,2.86841431 4.99603693,2.85310078 C4.99603693,2.79854636 5.04006331,2.75451998 5.09461774,2.75451998 C5.13481573,2.75451998 5.16927116,2.77844736 5.18458468,2.81290279 L5.18554178,2.81290279 C5.47937001,3.56230833 5.24392459,4.4246511 4.60554209,4.92138351 Z" id="形状"></path>
                        </g>
                    </g>
                </g>
            </g>
        </g>
    </g>
</svg>