<?xml version="1.0" encoding="UTF-8"?>
<svg width="14px" height="14px" viewBox="0 0 14 14" version="1.1" xmlns="http://www.w3.org/2000/svg" xmlns:xlink="http://www.w3.org/1999/xlink">
    <title>甘特图icon</title>
    <defs>
        <linearGradient x1="5.55111512e-15%" y1="-1.16573418e-13%" x2="100%" y2="100%" id="linearGradient-1">
            <stop stop-color="#F9A7D5" offset="0%"></stop>
            <stop stop-color="#FF0481" offset="100%"></stop>
        </linearGradient>
    </defs>
    <g id="聚焦搜索" stroke="none" stroke-width="1" fill="none" fill-rule="evenodd">
        <g id="聚焦搜索-详情" transform="translate(-239.000000, -780.000000)">
            <g id="连接线详情" transform="translate(223.000000, 580.000000)">
                <g id="条目6-甘特图" transform="translate(0.000000, 193.000000)">
                    <g id="甘特图icon" transform="translate(16.000000, 7.000000)">
                        <rect id="图标" fill="url(#linearGradient-1)" x="0" y="0" width="14" height="14" rx="2"></rect>
                        <g id="gantetu" transform="translate(3.000000, 3.000000)" fill="#FFFFFF" fill-rule="nonzero">
                            <polygon id="路径" points="1.53846154 6.46153846 7.69230769 6.46153846 7.69230769 7.69230769 1.53846154 7.69230769"></polygon>
                            <path d="M7.69230769,8 L1.53846154,8 C1.36852777,8 1.23076923,7.86224146 1.23076923,7.69230769 L1.23076923,6.46153846 C1.23076923,6.29160469 1.36852777,6.15384615 1.53846154,6.15384615 L7.69230769,6.15384615 C7.86224146,6.15384615 8,6.29160469 8,6.46153846 L8,7.69230769 C8,7.86224146 7.86224146,8 7.69230769,8 Z M1.84615385,7.38461538 L7.38461538,7.38461538 L7.38461538,6.76923077 L1.84615385,6.76923077 L1.84615385,7.38461538 Z" id="形状"></path>
                            <polygon id="路径" points="0.307692308 3.38461538 5.23076923 3.38461538 5.23076923 4.61538462 0.307692308 4.61538462"></polygon>
                            <path d="M5.23076923,4.92307692 L0.307692308,4.92307692 C0.137758539,4.92307692 0,4.78531838 0,4.61538462 L0,3.38461538 C0,3.21468162 0.137758539,3.07692308 0.307692308,3.07692308 L5.23076923,3.07692308 C5.400703,3.07692308 5.53846154,3.21468162 5.53846154,3.38461538 L5.53846154,4.61538462 C5.53846154,4.78531838 5.400703,4.92307692 5.23076923,4.92307692 Z M0.615384615,4.30769231 L4.92307692,4.30769231 L4.92307692,3.69230769 L0.615384615,3.69230769 L0.615384615,4.30769231 Z" id="形状"></path>
                            <polygon id="路径" points="4 0.307692308 7.69230769 0.307692308 7.69230769 1.53846154 4 1.53846154"></polygon>
                            <path d="M7.69230769,1.84615385 L4,1.84615385 C3.83006623,1.84615385 3.69230769,1.70839531 3.69230769,1.53846154 L3.69230769,0.307692308 C3.69230769,0.137758539 3.83006623,0 4,0 L7.69230769,0 C7.86224146,0 8,0.137758539 8,0.307692308 L8,1.53846154 C8,1.70839531 7.86224146,1.84615385 7.69230769,1.84615385 Z M4.30769231,1.23076923 L7.38461538,1.23076923 L7.38461538,0.615384615 L4.30769231,0.615384615 L4.30769231,1.23076923 Z" id="形状"></path>
                        </g>
                    </g>
                </g>
            </g>
        </g>
    </g>
</svg>