<?xml version="1.0" encoding="UTF-8"?>
<svg width="14px" height="14px" viewBox="0 0 14 14" version="1.1" xmlns="http://www.w3.org/2000/svg" xmlns:xlink="http://www.w3.org/1999/xlink">
    <title>知识库</title>
    <defs>
        <linearGradient x1="5.55111512e-15%" y1="-1.2490009e-13%" x2="100%" y2="100%" id="linearGradient-1">
            <stop stop-color="#F4C167" offset="0%"></stop>
            <stop stop-color="#EC567D" offset="100%"></stop>
        </linearGradient>
    </defs>
    <g id="聚焦搜索" stroke="none" stroke-width="1" fill="none" fill-rule="evenodd">
        <g id="聚焦搜索-详情" transform="translate(-239.000000, -929.000000)">
            <g id="连接线详情" transform="translate(223.000000, 580.000000)">
                <g id="知识库条目2" transform="translate(0.000000, 342.000000)">
                    <g id="知识库" transform="translate(16.000000, 7.000000)">
                        <rect id="图标" fill="url(#linearGradient-1)" x="0" y="0" width="14" height="14" rx="2"></rect>
                        <g id="zhishiku" transform="translate(3.000000, 3.000000)" fill="#FFFFFF" fill-rule="nonzero">
                            <path d="M6.40053763,0 C6.47759857,0 6.5546595,0.00358422939 6.63172043,0.0107526882 C6.87365591,0.0331541219 7.05913978,0.23655914 7.05824696,0.479390681 L7.05824696,5.76344086 C7.05824696,6.01702509 6.85752688,6.22401434 6.60483871,6.23297491 C6.14874552,6.25 5.76164875,6.3109319 5.4453405,6.41666667 C5.03046595,6.55555556 4.62634409,6.80734767 4.23566308,7.17114695 L4.23566308,1.2625448 C4.52419355,0.766129032 4.92831541,0.410394265 5.4453405,0.194444444 C5.74820789,0.0672043011 6.07258065,0.000896057348 6.40053763,0 Z M7.52956989,5.87455197 L7.52956989,1.05286738 C7.65412186,1.05286738 7.77419355,1.10215054 7.86200717,1.19086022 C7.94982079,1.27956989 8,1.39874552 8,1.52329749 L8,6.30734767 C8,6.68100358 7.76612903,7.28584229 7.05913978,7.22491039 C6.5609319,7.1827957 6.52867384,7.16487455 6.10842294,7.17204301 C5.69713262,7.17921147 5.12096774,7.16487455 4.60573477,7.28584229 C4.89426523,7.04480287 5.31630824,6.87455197 5.59587814,6.81541219 C5.87455197,6.75537634 6.22311828,6.72939068 6.63261649,6.71415771 C7.15232975,6.6953405 7.52956989,6.3046595 7.52956989,5.87455197 L7.52956989,5.87455197 Z M1.60035842,0 C1.92562724,0 2.2437276,0.0654121864 2.55555556,0.194444444 C3.07258065,0.409498208 3.47670251,0.766129032 3.76523297,1.2625448 L3.76523297,7.17204301 C3.37455197,6.80734767 2.97043011,6.55555556 2.55555556,6.41756272 C2.23924731,6.31272401 1.85304659,6.25089606 1.39605735,6.23476703 C1.14336918,6.22580645 0.94265233,6.01792115 0.943545399,5.76433692 L0.943545399,0.479390681 C0.943545399,0.23655914 1.1281362,0.0340501792 1.37007168,0.0116487455 C1.44623656,0.00358422939 1.52329749,0 1.60035842,0 Z M0.471326165,5.87455197 C0.471326165,6.2625448 0.758064516,6.69175627 1.3781362,6.71415771 C1.78853047,6.72939068 2.04480287,6.77419355 2.40591398,6.81541219 C2.76702509,6.85573477 3.11469534,7.04569892 3.40322581,7.28584229 C2.88799283,7.16487455 2.35483871,7.17204301 1.89247312,7.17204301 C1.52867384,7.17204301 1.46505376,7.22491039 0.941756272,7.22491039 C0.32437276,7.22491039 0,6.66666667 0,6.30734767 L0,1.52240143 C0,1.2625448 0.210573477,1.05197133 0.470430108,1.05197133 L0.470430108,5.87455197 L0.471326165,5.87455197 Z" id="形状"></path>
                        </g>
                    </g>
                </g>
            </g>
        </g>
    </g>
</svg>