<?xml version="1.0" encoding="UTF-8"?>
<svg width="20px" height="20px" viewBox="0 0 20 20" version="1.1" xmlns="http://www.w3.org/2000/svg" xmlns:xlink="http://www.w3.org/1999/xlink">
    <title>连接线icon</title>
    <defs>
        <linearGradient x1="88.3789062%" y1="100%" x2="5.55111512e-15%" y2="1.64991259%" id="linearGradient-1">
            <stop stop-color="#6388FB" offset="0%"></stop>
            <stop stop-color="#34E1EA" offset="100%"></stop>
        </linearGradient>
    </defs>
    <g id="聚焦搜索" stroke="none" stroke-width="1" fill="none" fill-rule="evenodd">
        <g id="聚焦搜索-详情" transform="translate(-867.000000, -597.000000)">
            <g id="连接线详情" transform="translate(223.000000, 580.000000)">
                <g id="连接线icon" transform="translate(644.000000, 17.000000)">
                    <rect id="图标" fill="url(#linearGradient-1)" x="0" y="0" width="20" height="20" rx="2"></rect>
                    <g id="map-connect-full" transform="translate(10.433452, 9.719167) rotate(135.000000) translate(-10.433452, -9.719167) translate(1.861970, 7.576130)" fill="#FFFFFF" fill-rule="nonzero">
                        <path d="M17.1429657,2.12814968 C17.1512821,3.31843987 16.1886705,4.28607381 15.0000544,4.28607381 C14.0675767,4.28607381 13.2740499,3.69009166 12.979407,2.8580604 C12.9409026,2.75091754 12.8404561,2.67893094 12.7266168,2.67893094 L4.41634888,2.67893094 C4.30250959,2.67893094 4.20206316,2.75091754 4.1635587,2.8580604 C3.86891583,3.69009166 3.07538904,4.28607381 2.14291135,4.28607381 C0.954295263,4.28607381 -0.00831635617,3.31843987 6.81884149e-13,2.12814968 C0.00842471547,0.947904128 1.00284437,-0.0214039195 2.18308992,0.000359473643 C3.09882654,0.0171005453 3.87561226,0.609734481 4.1652328,1.43004699 C4.20206316,1.53718985 4.3041837,1.60750235 4.41634888,1.60750235 L12.7266168,1.60750235 C12.838782,1.60750235 12.9409026,1.53718985 12.9777329,1.43004699 C13.2673535,0.608060374 14.0424651,0.0171005453 14.9598758,0.000359473643 C16.1401213,-0.0214039195 17.134541,0.947904128 17.1429657,2.12814968 Z" id="路径"></path>
                    </g>
                </g>
            </g>
        </g>
    </g>
</svg>