<?xml version="1.0" encoding="utf-8"?>
<!-- Generator: Adobe Illustrator 21.0.0, SVG Export Plug-In . SVG Version: 6.00 Build 0)  -->
<svg version="1.1" id="图层_1" xmlns="http://www.w3.org/2000/svg" xmlns:xlink="http://www.w3.org/1999/xlink" x="0px" y="0px"
	 viewBox="0 0 64 64" style="enable-background:new 0 0 64 64;" xml:space="preserve">
<style type="text/css">
	.st0{fill:none;}
	.st1{fill:#DB841F;}
	.st2{fill:#F4D98E;}
	.st3{fill:#6CBE7D;}
	.st4{fill:#63A9FB;}
</style>
<g>
	<g>
		<line class="st0" x1="31.9" y1="24.7" x2="31.9" y2="21.1"/>
		<path class="st1" d="M31.9,25.2c-0.3,0-0.5-0.2-0.5-0.5v-3.6c0-0.3,0.2-0.5,0.5-0.5c0.3,0,0.5,0.2,0.5,0.5v3.6
			C32.4,25,32.2,25.2,31.9,25.2z"/>
	</g>
	<g>
		<polygon class="st2" points="31.9,28.6 33.9,24.5 30,24.5 		"/>
		<path class="st1" d="M31.9,29.1c-0.2,0-0.4-0.1-0.5-0.3l-2-4.1c-0.1-0.2-0.1-0.3,0-0.5c0.1-0.1,0.2-0.2,0.4-0.2h3.9l0,0
			c0.2,0,0.3,0.1,0.4,0.2c0.1,0.1,0.1,0.3,0,0.5l-1.9,4.1C32.3,29,32.1,29.1,31.9,29.1C32,29.1,32,29.1,31.9,29.1z M30.8,25l1.2,2.5
			l1.1-2.5H30.8z"/>
	</g>
</g>
<g>
	<g>
		<line class="st0" x1="18.6" y1="38.9" x2="18.6" y2="33.6"/>
		<path class="st1" d="M18.6,39.4c-0.3,0-0.5-0.2-0.5-0.5v-5.3c0-0.3,0.2-0.5,0.5-0.5s0.5,0.2,0.5,0.5v5.3
			C19.1,39.2,18.8,39.4,18.6,39.4z"/>
	</g>
	<g>
		<polygon class="st2" points="18.6,42.8 20.5,38.6 16.6,38.7 		"/>
		<path class="st1" d="M18.6,43.3c-0.2,0-0.4-0.1-0.5-0.3l-2-4.1c-0.1-0.2-0.1-0.3,0-0.5c0.1-0.1,0.2-0.2,0.4-0.2h3.9
			c0.1,0,0.3,0.1,0.4,0.2c0.1,0.1,0.1,0.3,0,0.5L19,43C19,43.2,18.8,43.3,18.6,43.3z M17.4,39.2l1.2,2.5l1.1-2.5H17.4z"/>
	</g>
</g>
<path class="st3" d="M38.6,14c1.4,0,2.5,1.1,2.5,2.5v0.2c0,1.4-1.1,2.5-2.5,2.5H26.9c-1.4,0-2.5-1.1-2.5-2.5v-0.2
	c0-1.4,1.1-2.5,2.5-2.5H38.6 M38.6,12H26.9c-2.5,0-4.5,2-4.5,4.5v0.2c0,2.5,2,4.5,4.5,4.5h11.8c2.5,0,4.5-2,4.5-4.5v-0.2
	C43.2,14,41.1,12,38.6,12L38.6,12z"/>
<g>
	<line class="st0" x1="18.6" y1="33.5" x2="29.2" y2="33.6"/>
	<path class="st1" d="M29.2,34.1L29.2,34.1L18.6,34c-0.3,0-0.5-0.2-0.5-0.5s0.2-0.5,0.5-0.5l0,0l10.6,0.1c0.3,0,0.5,0.2,0.5,0.5
		S29.5,34.1,29.2,34.1z"/>
</g>
<g>
	<g>
		<line class="st0" x1="45.3" y1="38.9" x2="45.3" y2="33.6"/>
		<path class="st1" d="M45.3,39.4c-0.3,0-0.5-0.2-0.5-0.5v-5.3c0-0.3,0.2-0.5,0.5-0.5s0.5,0.2,0.5,0.5v5.3
			C45.8,39.2,45.6,39.4,45.3,39.4z"/>
	</g>
	<g>
		<polygon class="st2" points="45.3,42.8 43.4,38.6 47.3,38.7 		"/>
		<path class="st1" d="M45.3,43.3L45.3,43.3c-0.2,0-0.4-0.1-0.5-0.3l-1.9-4.1c-0.1-0.2-0.1-0.3,0-0.5c0.1-0.1,0.3-0.2,0.4-0.2h3.9
			c0.2,0,0.3,0.1,0.4,0.2c0.1,0.1,0.1,0.3,0,0.5l-2,4.1C45.6,43.2,45.5,43.3,45.3,43.3z M44.1,39.2l1.1,2.5l1.2-2.5H44.1z"/>
	</g>
</g>
<g>
	<line class="st0" x1="45.3" y1="33.5" x2="34.7" y2="33.6"/>
	<path class="st1" d="M34.7,34.1c-0.3,0-0.5-0.2-0.5-0.5s0.2-0.5,0.5-0.5L45.3,33l0,0c0.3,0,0.5,0.2,0.5,0.5S45.6,34,45.3,34
		L34.7,34.1L34.7,34.1z"/>
</g>
<g>
	<polygon class="st2" points="31.9,38.4 27.3,33.5 31.9,28.6 36.6,33.5 	"/>
	<path class="st1" d="M31.9,38.9c-0.1,0-0.3-0.1-0.4-0.2l-4.7-4.9c-0.2-0.2-0.2-0.5,0-0.7l4.7-4.9c0.2-0.2,0.5-0.2,0.7,0l4.7,4.9
		c0.2,0.2,0.2,0.5,0,0.7l-4.7,4.9C32.2,38.9,32.1,38.9,31.9,38.9z M27.9,33.5l4,4.2l4-4.2l-4-4.2L27.9,33.5z"/>
</g>
<path class="st3" d="M26.5,44.7c1.4,0,2.5,1.1,2.5,2.5v0.2c0,1.4-1.1,2.5-2.5,2.5H14.7c-1.4,0-2.5-1.1-2.5-2.5v-0.2
	c0-1.4,1.1-2.5,2.5-2.5H26.5 M26.5,42.7H14.7c-2.5,0-4.5,2-4.5,4.5v0.2c0,2.5,2,4.5,4.5,4.5h11.8c2.5,0,4.5-2,4.5-4.5v-0.2
	C31,44.8,29,42.7,26.5,42.7L26.5,42.7z"/>
<path class="st3" d="M49.6,44.7c1.4,0,2.5,1.1,2.5,2.5v0.2c0,1.4-1.1,2.5-2.5,2.5H37.9c-1.4,0-2.5-1.1-2.5-2.5v-0.2
	c0-1.4,1.1-2.5,2.5-2.5H49.6 M49.6,42.7H37.9c-2.5,0-4.5,2-4.5,4.5v0.2c0,2.5,2,4.5,4.5,4.5h11.8c2.5,0,4.5-2,4.5-4.5v-0.2
	C54.2,44.8,52.1,42.7,49.6,42.7L49.6,42.7z"/>
<path class="st4" d="M60.4,60.5h-57v-57h57V60.5z M6.4,57.5h51v-51h-51C6.4,6.5,6.4,57.5,6.4,57.5z"/>
</svg>
