<?xml version="1.0" encoding="utf-8"?>
<!-- Generator: Adobe Illustrator 21.0.0, SVG Export Plug-In . SVG Version: 6.00 Build 0)  -->
<svg version="1.1" id="图层_1" xmlns="http://www.w3.org/2000/svg" xmlns:xlink="http://www.w3.org/1999/xlink" x="0px" y="0px"
	 viewBox="0 0 64 64" style="enable-background:new 0 0 64 64;" xml:space="preserve">
<style type="text/css">
	.st0{fill:#DB841F;}
</style>
<path class="st0" d="M53.8,56.9H10.2C5.7,56.9,2,53.8,2,50V17.2c0-3.8,3.7-6.9,8.2-6.9h9.7l5.5,4.2h28.4c4.5,0,8.2,3.1,8.2,6.9V50
	C62,53.8,58.3,56.9,53.8,56.9z M10.2,13.5c-2.7,0-5,1.7-5,3.7V50c0,2,2.3,3.7,5,3.7h43.6c2.7,0,5-1.7,5-3.7V21.4c0-2-2.3-3.7-5-3.7
	H24.4l-5.5-4.2C18.9,13.5,10.2,13.5,10.2,13.5z"/>
<path class="st0" d="M24.9,17.7H3.6C2.7,17.7,2,17,2,16.1s0.7-1.6,1.6-1.6h21.3c0.9,0,1.6,0.7,1.6,1.6C26.5,17,25.8,17.7,24.9,17.7z
	"/>
<g>
	<path class="st0" d="M13.5,35.9c0-3.2,0.9-5.7,2.6-7.6s4.1-2.8,7-2.8c2.8,0,5,0.9,6.6,2.8c1.7,1.8,2.5,4.3,2.5,7.2
		c0,3.2-0.9,5.8-2.6,7.6c-1.7,1.9-4,2.8-6.9,2.8c-2.8,0-5.1-0.9-6.8-2.8C14.4,41.3,13.5,38.9,13.5,35.9z M16.2,35.7
		c0,2.4,0.6,4.3,1.8,5.8c1.2,1.4,2.8,2.2,4.8,2.2c2.1,0,3.8-0.7,5-2.1c1.2-1.4,1.8-3.3,1.8-5.8c0-2.6-0.6-4.5-1.8-5.9
		c-1.2-1.4-2.8-2.1-4.8-2.1s-3.7,0.7-4.9,2.2C16.8,31.4,16.2,33.4,16.2,35.7z"/>
	<path class="st0" d="M51,25.8l-7.3,19.8h-2.8l-7.1-19.8h2.8L42,41.3c0.2,0.5,0.3,1.1,0.4,1.8h0.1c0.1-0.6,0.2-1.2,0.4-1.8l5.4-15.4
		H51V25.8z"/>
</g>
</svg>
