<?xml version="1.0" encoding="UTF-8"?>
<svg width="8px" height="13px" viewBox="0 0 8 13" version="1.1" xmlns="http://www.w3.org/2000/svg" xmlns:xlink="http://www.w3.org/1999/xlink">
    <title>点击图标</title>
    <g id="聚焦搜索" stroke="none" stroke-width="1" fill="none" fill-rule="evenodd">
        <g id="聚焦搜索-详情" transform="translate(-499.000000, -669.000000)" fill="#999999" fill-rule="nonzero">
            <g id="连接线详情" transform="translate(223.000000, 580.000000)">
                <g id="条目2-连接线" transform="translate(0.000000, 81.000000)">
                    <g id="灰色更多详情icon" transform="translate(276.000000, 8.000000)">
                        <path d="M7.85433069,0.201259451 C8.06549972,0.444705607 8.03924036,0.81324844 7.79561185,1.02441746 L1.75267648,6.16869916 C1.66861005,6.24164182 1.66879241,6.37239156 1.75340591,6.44478716 L7.79652363,11.6324697 C8.04106392,11.8423623 8.06914685,12.2107227 7.85925432,12.455263 C7.64936179,12.6998033 7.28100132,12.7278863 7.03646102,12.5179937 L0.127149113,6.586843 C-0.0418955211,6.44168709 -0.0424425911,6.18036998 0.125872616,6.03448465 L7.03135504,0.142540603 C7.27461884,-0.0684460651 7.64316167,-0.0421867045 7.85433069,0.201259451 L7.85433069,0.201259451 Z" id="点击图标" transform="translate(4.000000, 6.329370) scale(-1, 1) translate(-4.000000, -6.329370) "></path>
                    </g>
                </g>
            </g>
        </g>
    </g>
</svg>