<?xml version="1.0" encoding="UTF-8"?>
<svg width="14px" height="14px" viewBox="0 0 14 14" version="1.1" xmlns="http://www.w3.org/2000/svg" xmlns:xlink="http://www.w3.org/1999/xlink">
    <title>shitujuzhen</title>
    <defs>
        <linearGradient x1="5.55111512e-15%" y1="-1.05471187e-13%" x2="100%" y2="100%" id="linearGradient-1">
            <stop stop-color="#FDDD16" offset="0%"></stop>
            <stop stop-color="#F8BA0F" offset="100%"></stop>
        </linearGradient>
    </defs>
    <g id="聚焦搜索" stroke="none" stroke-width="1" fill="none" fill-rule="evenodd">
        <g id="聚焦搜索-详情" transform="translate(-239.000000, -724.000000)">
            <g id="连接线详情" transform="translate(223.000000, 580.000000)">
                <g id="条目4-矩阵" transform="translate(0.000000, 137.000000)">
                    <g id="shitujuzhen" transform="translate(16.000000, 7.000000)">
                        <rect id="图标" fill="url(#linearGradient-1)" x="0" y="0" width="14" height="14" rx="2"></rect>
                        <polygon id="路径" fill="#FFFFFF" fill-rule="nonzero" points="3 3 5.28571429 3 5.28571429 5.28571429 3 5.28571429"></polygon>
                        <polygon id="路径" fill="#FFFFFF" fill-rule="nonzero" points="5.85714286 3 8.14285714 3 8.14285714 5.28571429 5.85714286 5.28571429"></polygon>
                        <polygon id="路径" fill="#FFFFFF" fill-rule="nonzero" points="8.71428571 3 11 3 11 5.28571429 8.71428571 5.28571429"></polygon>
                        <polygon id="路径" fill="#FFFFFF" fill-rule="nonzero" points="3 5.85714286 5.28571429 5.85714286 5.28571429 8.14285714 3 8.14285714"></polygon>
                        <polygon id="路径" fill="#FFFFFF" fill-rule="nonzero" points="5.85714286 5.85714286 8.14285714 5.85714286 8.14285714 8.14285714 5.85714286 8.14285714"></polygon>
                        <polygon id="路径" fill="#FFFFFF" fill-rule="nonzero" points="8.71428571 5.85714286 11 5.85714286 11 8.14285714 8.71428571 8.14285714"></polygon>
                        <polygon id="路径" fill="#FFFFFF" fill-rule="nonzero" points="3 8.71428571 5.28571429 8.71428571 5.28571429 11 3 11"></polygon>
                        <polygon id="路径" fill="#FFFFFF" fill-rule="nonzero" points="5.85714286 8.71428571 8.14285714 8.71428571 8.14285714 11 5.85714286 11"></polygon>
                        <polygon id="路径" fill="#FFFFFF" fill-rule="nonzero" points="8.71428571 8.71428571 11 8.71428571 11 11 8.71428571 11"></polygon>
                    </g>
                </g>
            </g>
        </g>
    </g>
</svg>