<?xml version="1.0" encoding="UTF-8"?>
<svg width="14px" height="14px" viewBox="0 0 14 14" version="1.1" xmlns="http://www.w3.org/2000/svg" xmlns:xlink="http://www.w3.org/1999/xlink">
    <title>快捷键icon</title>
    <defs>
        <linearGradient x1="2.61179967e-12%" y1="1.66533454e-14%" x2="100%" y2="100%" id="linearGradient-1">
            <stop stop-color="#6BF0AF" offset="0%"></stop>
            <stop stop-color="#0BDED8" offset="100%"></stop>
        </linearGradient>
    </defs>
    <g id="聚焦搜索" stroke="none" stroke-width="1" fill="none" fill-rule="evenodd">
        <g id="快捷键icon">
            <rect id="图标" fill="url(#linearGradient-1)" x="0" y="0" width="14" height="14" rx="2"></rect>
            <g id="peizhi-kuaijiejian" transform="translate(3.000000, 2.000000)" fill="#FFFFFF" fill-rule="nonzero">
                <path d="M8,8.04807747 L8,4.72867448 C8,4.03613717 7.43482587,3.47892324 6.74228856,3.47892324 L4.52935323,3.47892324 C4.52935323,2.31673418 4.80796019,2.42021677 5.5402985,2.31673418 C6.28059701,2.2132516 7.02885572,2.07792822 7.02885572,0.318724235 C7.02089552,0.143599852 6.87761194,0.00827647316 6.71044777,0.000316279736 C6.52736319,-0.00764392278 6.36815921,0.135639659 6.36019901,0.318724235 C6.35223881,1.50479389 6.15323383,1.56847548 5.44477612,1.66399787 C4.70447761,1.76748046 3.86069652,1.74359986 3.86069652,3.47892324 L1.25771144,3.47892324 C0.565174133,3.47892324 0,4.03613717 0,4.72867448 L0,8.05603767 C0,8.74857498 0.565174133,9.30578891 1.25771144,9.30578891 L6.75024876,9.30578891 C7.44278607,9.29782871 8,8.74061478 8,8.04807747 Z M4.8318408,4.72867448 L5.66766169,4.72867448 L5.66766169,5.55653518 L4.8318408,5.55653518 L4.8318408,4.72867448 Z M6.08159204,5.97046553 L6.08159204,6.79832623 L5.24577115,6.79832623 L5.24577115,5.97046553 L6.08159204,5.97046553 Z M4.8238806,5.97046553 L4.8238806,6.79832623 L3.9800995,6.79832623 L3.9800995,5.97046553 L4.8238806,5.97046553 Z M3.56616915,4.72867448 L4.40199005,4.72867448 L4.40199005,5.55653518 L3.56616915,5.55653518 L3.56616915,4.72867448 Z M2.30845771,4.72867448 L3.14427861,4.72867448 L3.14427861,5.55653518 L2.30845771,5.55653518 L2.30845771,4.72867448 L2.30845771,4.72867448 Z M3.56616915,5.97046553 L3.56616915,6.79832623 L2.73034826,6.79832623 L2.73034826,5.97046553 L3.56616915,5.97046553 Z M1.05074627,4.72867448 L1.88656717,4.72867448 L1.88656717,5.55653518 L1.05074627,5.55653518 L1.05074627,4.72867448 Z M2.30845771,5.97046553 L2.30845771,6.79832623 L1.47263682,6.79832623 L1.47263682,5.97046553 L2.30845771,5.97046553 Z M1.88656717,8.04807747 L1.05074627,8.04807747 L1.05074627,7.22021677 L1.88656717,7.22021677 L1.88656717,8.04807747 Z M5.66766169,8.04807747 L2.30845771,8.04807747 L2.30845771,7.22021677 L5.66766169,7.22021677 L5.66766169,8.04807747 Z M6.92537313,8.04807747 L6.08159204,8.04807747 L6.08159204,7.22021677 L6.91741294,7.22021677 L6.91741294,8.04807747 L6.92537313,8.04807747 Z M6.92537313,5.55653518 L6.08159204,5.55653518 L6.08159204,4.72867448 L6.91741294,4.72867448 L6.91741294,5.55653518 L6.92537313,5.55653518 Z" id="形状"></path>
            </g>
        </g>
    </g>
</svg>