<?xml version="1.0" encoding="UTF-8"?>
<svg width="14px" height="14px" viewBox="0 0 14 14" version="1.1" xmlns="http://www.w3.org/2000/svg" xmlns:xlink="http://www.w3.org/1999/xlink">
    <title>table-icon</title>
    <defs>
        <linearGradient x1="2.61179967e-12%" y1="1.66533454e-14%" x2="100%" y2="100%" id="linearGradient-1">
            <stop stop-color="#6BF0AF" offset="0%"></stop>
            <stop stop-color="#0BDED8" offset="100%"></stop>
        </linearGradient>
    </defs>
    <g id="聚焦搜索" stroke="none" stroke-width="1" fill="none" fill-rule="evenodd">
        <g id="聚焦搜索-详情" transform="translate(-239.000000, -752.000000)">
            <g id="连接线详情" transform="translate(223.000000, 580.000000)">
                <g id="条目5-表格" transform="translate(0.000000, 165.000000)">
                    <g id="table-icon" transform="translate(16.000000, 7.000000)">
                        <rect id="图标" fill="url(#linearGradient-1)" x="0" y="0" width="14" height="14" rx="2"></rect>
                        <path d="M5.36363636,7.90909091 L2.5,7.90909091 L2.5,5.86363637 L5.36363636,5.86363637 L5.36363636,7.90909091 Z M8.63636364,8.31818182 L8.63636364,10.7727273 L10.9886364,10.7727273 C11.2709233,10.7724102 11.499683,10.5436505 11.5,10.2613636 L11.5,8.31818182 L8.63636364,8.31818182 Z M8.63636364,7.90909091 L11.5,7.90909091 L11.5,5.86363637 L8.63636364,5.86363637 L8.63636364,7.90909091 Z M11.5,5.45454545 L11.5,3.51136363 C11.499683,3.22907672 11.2709233,3.00031704 10.9886364,3 L3.01136363,3 C2.72907672,3.00031704 2.50031704,3.22907672 2.5,3.51136363 L2.5,5.45454545 L11.5,5.45454545 Z M5.36363636,8.31818182 L2.5,8.31818182 L2.5,10.2613636 C2.50031703,10.5436505 2.72907672,10.7724102 3.01136363,10.7727273 L5.36363636,10.7727273 L5.36363636,8.31818182 Z M5.77272727,10.7727273 L8.22727272,10.7727273 L8.22727272,8.31818182 L5.77272727,8.31818182 L5.77272727,10.7727273 Z M5.77272727,7.90909091 L8.22727272,7.90909091 L8.22727272,5.86363637 L5.77272727,5.86363637 L5.77272727,7.90909091 Z" id="形状" fill="#FFFFFF" fill-rule="nonzero"></path>
                    </g>
                </g>
            </g>
        </g>
    </g>
</svg>