<?xml version="1.0" encoding="UTF-8"?>
<svg width="14px" height="14px" viewBox="0 0 14 14" version="1.1" xmlns="http://www.w3.org/2000/svg" xmlns:xlink="http://www.w3.org/1999/xlink">
    <title>版本icon</title>
    <defs>
        <linearGradient x1="5.55111512e-15%" y1="-1.05471187e-13%" x2="100%" y2="100%" id="linearGradient-1">
            <stop stop-color="#FDDD16" offset="0%"></stop>
            <stop stop-color="#F8BA0F" offset="100%"></stop>
        </linearGradient>
    </defs>
    <g id="聚焦搜索" stroke="none" stroke-width="1" fill="none" fill-rule="evenodd">
        <g id="版本icon">
            <rect id="图标" fill="url(#linearGradient-1)" x="0" y="0" width="14" height="14" rx="2"></rect>
            <g id="banbenguanli" transform="translate(2.000000, 2.000000)" fill="#FFFFFF" fill-rule="nonzero">
                <polygon id="路径" fill-opacity="0.01" points="0 0 10 0 10 10 0 10"></polygon>
                <path d="M8.22857143,6.68785714 L9.31,7.21428571 C9.37495825,7.24597588 9.41956464,7.30827647 9.42863571,7.37998111 C9.43770678,7.45168575 9.41002014,7.52313185 9.355,7.57 L9.31428571,7.59785714 L5.16928571,9.72428571 C5.08807738,9.76589162 4.99402413,9.7748369 4.90642857,9.74928571 L4.84357143,9.72428571 L0.698571426,7.59785714 C0.634012347,7.56493494 0.590467143,7.50161326 0.582828233,7.42954806 C0.575189323,7.35748286 0.604491816,7.28643933 0.660714287,7.24071429 L0.702857139,7.21428571 L1.78285714,6.68785714 L5.00642857,8.34142857 L8.22857143,6.68785714 L8.22857143,6.68785714 Z M8.22928571,4.34357143 L9.31,4.87 C9.37495825,4.90169016 9.41956464,4.96399075 9.42863571,5.0356954 C9.43770678,5.10740004 9.41002014,5.17884613 9.355,5.22571429 L9.31428571,5.25285714 L5.16928571,7.37928571 C5.08817135,7.42113019 4.99411449,7.4303314 4.90642857,7.405 L4.84357143,7.37928571 L0.698571426,5.25285714 C0.634012347,5.21993494 0.590467143,5.15661326 0.582828233,5.08454806 C0.575189323,5.01248286 0.604491816,4.94143933 0.660714287,4.89571429 L0.702857139,4.87 L1.78285714,4.34357143 L5.00714286,5.99714286 L8.23,4.34357143 L8.22928571,4.34357143 Z M4.85,0.505714287 C4.94873774,0.457607133 5.0641194,0.457607133 5.16285714,0.505714287 L9.31,2.525 C9.38314528,2.56042952 9.42995155,2.63419022 9.43087303,2.71545927 C9.43176761,2.79672832 9.38662111,2.87151643 9.31428571,2.90857143 L5.16928571,5.035 C5.16833546,5.03548044 5.16738307,5.03595664 5.16642857,5.03642857 L5.00642857,5.11857143 L2.66071429,3.91571429 L0.698571426,2.90857143 C0.626236031,2.87151643 0.581089524,2.79672832 0.581984112,2.71545927 C0.582905591,2.63419022 0.629711861,2.56042952 0.702857139,2.525 L4.85,0.505714287 Z" id="形状"></path>
            </g>
        </g>
    </g>
</svg>